<svg xmlns="http://www.w3.org/2000/svg" viewBox="0 0 511.1 511.1">
  <path d="M255.6 392.5c-24 0-42.7 18.8-42.7 42.7s18.8 42.7 42.7 42.7c23.9 0 42.6-18.8 42.6-42.7s-18.7-42.7-42.6-42.7zm0 68.3a25 25 0 0 1-25.6-25.6c0-14.5 11-25.6 25.6-25.6s25.6 11 25.6 25.6a25.2 25.2 0 0 1-25.6 25.6z"/>
  <path d="M392.1 0H119a8 8 0 0 0-8.5 8.5v401.1a23 23 0 0 0 12 20.5l42.6 29.8c1.3.7 2.6 1.8 3.9 2.3l58.4 40.4c8.5 6 18 8.5 28.2 8.5s19.6-2.5 28.1-8.5l58.5-40.4c.8-.3 1.6-1 2.2-1.5L364 447l23.8-16.2a25.1 25.1 0 0 0 12.8-21.3V8.5a8 8 0 0 0-8.5-8.5zm-12.8 415.6L349.4 436V318.3l34.2-21.1v110.7a9 9 0 0 1-4.3 7.7zm-217.6 21.2l-29.9-20.4c-2.5-.8-4.2-5-4.2-7.7V297l34.1 21.3v118.5zm88.8-301.1c3.4 1.7 6.8 1.7 9.3 0L383.6 58v31.6l-128 80.2-79.2-49.6-1.9-1.6-47-29.7V58l123 77.7zm5 76.8l-76.7-48.6v-23.3c36.7 23 75.9 47.1 76.8 47.1s40-24.2 76.8-47v23.7l-76.8 48zm-128-81v-21.4l34.2 21.3v21.7l-34.1-21.5zm0 72.4l34.2 21.4V247l-34.1-21.6V204zm51.3 30.7l72.5 45.3c.9.8 2.6 1.7 4.3 1.7s3.4 0 4.2-.9l72.6-45.3v22.9l-76.8 48-76.8-48.5v-23.2zm204.8-30.7v22.2l-34.2 21.4v-22.8l12.8-8 21.4-12.8zm0-20.4l-128 80.2-128-81v-30.8l38.9 24.3.8.5 83.2 52c3.4 1.7 6.8 1.7 9.3 0l81.3-51c.8-.1 3.4-1.3 4-2l38.5-24.2v32zm0-51.2l-34.2 21.3v-23l21.5-14 12.7-7.9v23.6zm-128-13.7l-76.8-48.5V17h153.6v53.5l-76.8 48zm-128 157.9V246l14 8.6 108.9 68.8c3.4 1.7 6.8 1.7 9.3 0l123.8-76.8v30.7l-128 80.2-128-81zM383.6 17v21.3l-34.2 21.3V17.1h34.2zm-256 0h34.1v41.8l-34.1-21.4V17.1zm146.7 471a33.5 33.5 0 0 1-37.5 0l-58-39.6v-120l72.5 45.3c.9.8 2.6 1.7 4.3 1.7s3.4-.9 4.2-1.7l72.6-45V448l-58 40.1z"/>
</svg>