<svg xmlns="http://www.w3.org/2000/svg" viewBox="0 0 512 512">
  <path d="M256 392.5c-23.9 0-42.7 18.8-42.7 42.7s18.8 42.7 42.7 42.7c23.9 0 42.7-18.8 42.7-42.7s-18.8-42.7-42.7-42.7zm0 68.3a25 25 0 0 1-25.6-25.6 25 25 0 0 1 25.6-25.6 25 25 0 0 1 25.6 25.6 25 25 0 0 1-25.6 25.6z"/>
  <path d="M392.5.9H174.7a9.4 9.4 0 0 0-4-.9h-51.2c-5.2 0-8.6 3.4-8.6 8.5v401.1c0 8.5 4.3 17 11.1 21.3l43.5 29.9 1.8.9 60.5 41.8c8.6 6 18 8.5 28.2 8.5s19.6-2.6 28.2-8.5l60.5-41.8 1.8-.9 42.6-29.9c7.7-4.2 12-12.8 12-21.3V9.3c0-5-3.4-8.4-8.6-8.4zm-12.8 415.5L350 437V276l34.1-21.3v154.1a8.8 8.8 0 0 1-4.3 7.7zm-203-151.2c-.5-.5-1-1-1.8-1.5L128 234v-31l122.9 77.7c3.4 1.8 6.8 1.8 9.4 0l85.2-52.8h.1l4.6-3 33.8-21v30.8l-128 80.2-79.2-49.7zM162.2 437l-29.8-20.5c-2.6-.8-4.3-4.2-4.3-6.8V254.3l34.1 21.3V437zM256 263.7L179.2 215v-31.7l72.5 45.3a7 7 0 0 0 4.3 1.7c1.7 0 3.4 0 4.3-1.7l72.5-45.3v32.2l-76.8 48zm89.5-138.2h.1l4.7-3 33.7-21v30.8l-128 80.2-79.2-49.7-1.9-1.5-46.9-29.7v-31l122.9 77.7c3.4 1.8 6.8 1.8 9.4 0l85.2-52.8zm38.5 58l-34.1 21.3v-31.6l34.1-20.5v30.8zm-221.9 20.8L128 182.8v-30l34.1 21.3v30.2zm93.9-43l-76.8-48.6V18h153.6v95.3l-76.8 48zm-93.9-59.4L128 80.4V17.9h34.1v84zM384 18v63.2l-34.1 21.3V17.9H384zM274.8 489a33.5 33.5 0 0 1-37.6 0l-58-40V285.8l72.5 45.3a7 7 0 0 0 4.3 1.7c1.7 0 3.4 0 4.3-.9l72.5-45.3V449l-58 40z"/>
</svg>